# xmcd
#
# Track frame offsets:
#	150
#	15250
#	25962
#	43345
#	55620
#	65645
#	74980
#	88330
#	101309
#	112510
#	120238
#	132709
#
# Disc length: 1955 seconds
#
# Revision: 1
# Processed by: cddbd v1.5.2PL0 Copyright (c) Steve Scherf et al.
# Submitted via: audiograbber 1.83.01
#
DISCID=a207a10c
DTITLE=Bruce Low - Joker - Lieder Mit Bruce Low
DYEAR=1900
DGENRE=Folk
TTITLE0=Das Kartenspiel (Deck Of Cards)
TTITLE1=Amen (Seht Das Kindlein)
TTITLE2=Delta Down
TTITLE3=Ich Möcht' So Gerne Wissen
TTITLE4=Jericho
TTITLE5=Grün, Grün
TTITLE6=Sodom Und Gomorra
TTITLE7=Die Himmelbahn (Gospeltrain)
TTITLE8=Abschied Von Kingstontown
TTITLE9=Every Time  I Feel The Spirit
TTITLE10=Gib Mir Den Wein
TTITLE11=Nun Bist Du Bei Mir
EXTD=
EXTT0=
EXTT1=
EXTT2=
EXTT3=
EXTT4=
EXTT5=
EXTT6=
EXTT7=
EXTT8=
EXTT9=
EXTT10=
EXTT11=
PLAYORDER=
